#!OML:ASF G:\JayActor3\Patient Classification 1\Patient 1\Session 6\male.ASF
:FULLY-SPECIFIED
:DEGREES
880
root 5.26218 16.2609 -24.0273 197.132 -46.6236 -176.092
lowerback 29.1917 -1.89902 2.89259
upperback 5.51607 -2.30935 0.664873
thorax -9.95777 -1.48276 -0.0145191
lowerneck -4.15698 -0.126173 2.87158
upperneck 6.98182 -0.496052 0.799393
head 2.94721 -0.168904 -0.260052
rclavicle 1.31198e-014 -3.81667e-014
rhumerus -31.3898 8.80951 -86.3003
rradius 37.916
rwrist 5.04028
rhand -11.4244 -5.67126
rfingers 7.12502
rthumb 14.6116 -35.1365
lclavicle 1.31198e-014 -3.81667e-014
lhumerus -36.2532 -11.3701 86.2727
lradius 40.3455
lwrist 25.0846
lhand -17.5991 5.24083
lfingers 7.12502
lthumb 8.65725 35.0433
rfemur -48.5378 11.1073 21.7737
rtibia 44.6283
rfoot -16.1431 -9.35897
rtoes 9.41128
lfemur -41.5453 5.00761 -20.0396
ltibia 40.7201
lfoot -17.5126 5.17593
ltoes -6.24664
881
root 5.25036 16.2632 -24.0475 197.059 -46.6289 -176.062
lowerback 29.1356 -1.9084 2.87307
upperback 5.45125 -2.31594 0.680809
thorax -10.0032 -1.48161 0.0166197
lowerneck -4.24237 -0.11525 2.90264
upperneck 7.10134 -0.487153 0.758281
head 3.00421 -0.163795 -0.279014
rclavicle 1.1291e-013 -1.66979e-014
rhumerus -31.4949 8.70261 -86.1583
rradius 37.7114
rwrist 5.11153
rhand -11.343 -5.69465
rfingers 7.12502
rthumb 14.6901 -35.1542
lclavicle 1.1291e-013 -1.66979e-014
lhumerus -36.3946 -11.4816 86.2429
lradius 40.4905
lwrist 25.1087
lhand -17.6549 5.23883
lfingers 7.12502
lthumb 8.60336 35.0435
rfemur -48.3581 11.0607 21.8727
rtibia 44.5877
rfoot -16.1984 -9.28077
rtoes 9.46619
lfemur -41.3656 4.98406 -19.9719
ltibia 40.6729
lfoot -17.5805 5.3155
ltoes -6.50711
882
root 5.23976 16.2654 -24.0666 197.004 -46.643 -176.034
lowerback 29.0892 -1.92148 2.85426
upperback 5.39362 -2.32794 0.697637
thorax -10.0453 -1.48333 0.0505253
lowerneck -4.28298 -0.0974439 2.93896
upperneck 7.19113 -0.466658 0.709726
head 3.04284 -0.153602 -0.300643
rclavicle -9.93923e-015 -8.50798e-014
rhumerus -31.5883 8.59216 -86.02
rradius 37.5444
rwrist 5.17719
rhand -11.2971 -5.72511
rfingers 7.12502
rthumb 14.7343 -35.1814
lclavicle -9.93923e-015 -8.50798e-014
lhumerus -36.5234 -11.5927 86.2068
lradius 40.6488
lwrist 25.1425
lhand -17.7201 5.21955
lfingers 7.12502
lthumb 8.54043 35.0268
rfemur -48.2071 11.011 21.9656
rtibia 44.5527
rfoot -16.253 -9.20501
rtoes 9.50141
lfemur -41.2205 4.97155 -19.9123
ltibia 40.6372
lfoot -17.6361 5.4211
ltoes -6.7171
883
root 5.23029 16.2676 -24.0845 196.969 -46.6587 -176.009
lowerback 29.049 -1.93243 2.83454
upperback 5.34645 -2.33918 0.713032
thorax -10.0785 -1.48518 0.083031
lowerneck -4.30708 -0.07895 2.97927
upperneck 7.2632 -0.445031 0.667501
head 3.07238 -0.142789 -0.320787
rclavicle -4.21423e-014 -1.15295e-014
rhumerus -31.6649 8.47574 -85.8927
rradius 37.4146
rwrist 5.25002
rhand -11.3018 -5.81853
rfingers 7.12502
rthumb 14.7297 -35.2752
lclavicle -4.21423e-014 -1.15295e-014
lhumerus -36.6299 -11.7091 86.1628
lradius 40.8112
lwrist 25.1808
lhand -17.7665 5.19265
lfingers 7.12502
lthumb 8.49568 35.0018
rfemur -48.084 10.9685 22.0477
rtibia 44.5214
rfoot -16.303 -9.13767
rtoes 9.53192
lfemur -41.1053 4.97213 -19.8619
ltibia 40.6074
lfoot -17.6763 5.4978
ltoes -6.87567
884
root 5.22183 16.2698 -24.1013 196.954 -46.6739 -175.99
lowerback 29.0105 -1.94096 2.81379
upperback 5.31133 -2.3497 0.726353
thorax -10.0986 -1.48722 0.113281
lowerneck -4.32089 -0.0610152 3.02026
upperneck 7.31753 -0.424153 0.635415
head 3.09393 -0.132176 -0.33772
rclavicle 2.66371e-014 -3.02153e-014
rhumerus -31.7238 8.35113 -85.7727
rradius 37.3137
rwrist 5.31673
rhand -11.3357 -5.93166
rfingers 7.12502
rthumb 14.6971 -35.3907
lclavicle 2.66371e-014 -3.02153e-014
lhumerus -36.7111 -11.8207 86.1116
lradius 40.9736
lwrist 25.2301
lhand -17.8034 5.16694
lfingers 7.12502
lthumb 8.46008 34.9775
rfemur -47.9898 10.9351 22.1157
rtibia 44.4924
rfoot -16.3445 -9.08326
rtoes 9.53959
lfemur -41.0176 4.98437 -19.8232
ltibia 40.5783
lfoot -17.6962 5.54981
ltoes -6.98374
885
root 5.21411 16.2723 -24.1169 196.957 -46.6889 -175.975
lowerback 28.9709 -1.94733 2.79912
upperback 5.288 -2.35777 0.73671
thorax -10.1049 -1.48884 0.135419
lowerneck -4.31819 -0.0475296 3.05356
upperneck 7.34824 -0.408762 0.620331
head 3.10421 -0.124155 -0.347892
rclavicle -8.18993e-014 1.43125e-014
rhumerus -31.7744 8.20868 -85.6564
rradius 37.2501
rwrist 5.36289
rhand -11.3816 -6.03183
rfingers 7.12502
rthumb 14.6529 -35.4941
lclavicle -8.18993e-014 1.43125e-014
lhumerus -36.7668 -11.9323 86.0535
lradius 41.1272
lwrist 25.2802
lhand -17.7955 5.14225
lfingers 7.12502
lthumb 8.46769 34.9525
rfemur -47.9208 10.9119 22.1703
rtibia 44.4654
rfoot -16.3779 -9.04447
rtoes 9.53553
lfemur -40.9538 5.00248 -19.7936
ltibia 40.5486
lfoot -17.6958 5.57998
ltoes -7.02705
886
root 5.20718 16.2749 -24.1312 196.979 -46.7027 -175.967
lowerback 28.9319 -1.95002 2.78694
upperback 5.27502 -2.3622 0.744954
thorax -10.0997 -1.48935 0.152154
lowerneck -4.30603 -0.0404883 3.08416
upperneck 7.35642 -0.401829 0.619056
head 3.10486 -0.120105 -0.353347
rclavicle -4.41302e-014 5.60573e-014
rhumerus -31.8205 8.0597 -85.5446
rradius 37.2208
rwrist 5.38365
rhand -11.4196 -6.10968
rfingers 7.12502
rthumb 14.6162 -35.5746
lclavicle -4.41302e-014 5.60573e-014
lhumerus -36.7995 -12.038 85.9912
lradius 41.2702
lwrist 25.3219
lhand -17.7744 5.11807
lfingers 7.12502
lthumb 8.48806 34.9275
rfemur -47.8765 10.8999 22.2104
rtibia 44.4406
rfoot -16.4031 -9.02468
rtoes 9.52202
lfemur -40.912 5.02356 -19.7736
ltibia 40.5163
lfoot -17.6729 5.5956
ltoes -7.01192
887
root 5.20109 16.2775 -24.1443 197.016 -46.7151 -175.961
lowerback 28.8957 -1.95065 2.7771
upperback 5.27114 -2.36485 0.751257
thorax -10.0855 -1.48957 0.164559
lowerneck -4.27087 -0.0395351 3.1097
upperneck 7.33558 -0.401854 0.628969
head 3.09107 -0.119577 -0.354394
rclavicle -5.725e-014 7.11649e-014
rhumerus -31.8725 7.93292 -85.4523
rradius 37.2394
rwrist 5.37889
rhand -11.4709 -6.19852
rfingers 7.12502
rthumb 14.5668 -35.667
lclavicle -5.725e-014 7.11649e-014
lhumerus -36.8148 -12.1329 85.9234
lradius 41.4081
lwrist 25.3655
lhand -17.7565 5.11054
lfingers 7.12502
lthumb 8.50535 34.9192
rfemur -47.8546 10.8966 22.2404
rtibia 44.418
rfoot -16.4232 -9.01719
rtoes 9.51538
lfemur -40.8906 5.04338 -19.7586
ltibia 40.4816
lfoot -17.633 5.60169
ltoes -6.92972
888
root 5.19581 16.2801 -24.1562 197.071 -46.727 -175.965
lowerback 28.8645 -1.94947 2.76448
upperback 5.27488 -2.36731 0.755457
thorax -10.0651 -1.49001 0.176117
lowerneck -4.22848 -0.0449983 3.13703
upperneck 7.29966 -0.410053 0.642441
head 3.07065 -0.123064 -0.354842
rclavicle 2.78299e-014 6.99722e-014
rhumerus -31.9296 7.83982 -85.3834
rradius 37.301
rwrist 5.35915
rhand -11.5289 -6.30708
rfingers 7.12502
rthumb 14.5109 -35.7796
lclavicle 2.78299e-014 6.99722e-014
lhumerus -36.8162 -12.2091 85.8493
lradius 41.5396
lwrist 25.3964
lhand -17.7447 5.10168
lfingers 7.12502
lthumb 8.51676 34.9099
rfemur -47.8529 10.9008 22.2555
rtibia 44.3984
rfoot -16.4394 -9.02689
rtoes 9.50705
lfemur -40.8862 5.05781 -19.7531
ltibia 40.4438
lfoot -17.5825 5.60262
ltoes -6.79194
889
root 5.19142 16.2825 -24.1669 197.139 -46.7423 -175.977
lowerback 28.8412 -1.95043 2.74926
upperback 5.28632 -2.37446 0.758179
thorax -10.0399 -1.49295 0.189323
lowerneck -4.1752 -0.0501576 3.1719
upperneck 7.2529 -0.416846 0.646483
head 3.04449 -0.12612 -0.359523
rclavicle 1.15295e-014 2.10712e-014
rhumerus -31.9878 7.79295 -85.3425
rradius 37.3994
rwrist 5.33627
rhand -11.5749 -6.43494
rfingers 7.12502
rthumb 14.4666 -35.9107
lclavicle 1.15295e-014 2.10712e-014
lhumerus -36.8095 -12.2559 85.7687
lradius 41.672
lwrist 25.4156
lhand -17.7669 5.10457
lfingers 7.12502
lthumb 8.49531 34.9137
rfemur -47.8678 10.9076 22.2595
rtibia 44.3827
rfoot -16.4574 -9.04608
rtoes 9.50862
lfemur -40.8951 5.06548 -19.7549
ltibia 40.4038
lfoot -17.5294 5.59965
ltoes -6.61782
890
root 5.18773 16.2846 -24.1765 197.218 -46.7584 -175.991
lowerback 28.8229 -1.95369 2.73456
upperback 5.30508 -2.38551 0.760226
thorax -10.0089 -1.49811 0.202891
lowerneck -4.12408 -0.0550015 3.20969
upperneck 7.20617 -0.422984 0.645315
head 3.01879 -0.128937 -0.366366
rclavicle 6.36111e-015 3.33958e-014
rhumerus -32.0391 7.79519 -85.328
rradius 37.5174
rwrist 5.30573
rhand -11.5993 -6.56933
rfingers 7.12502
rthumb 14.4431 -36.0467
lclavicle 6.36111e-015 3.33958e-014
lhumerus -36.7938 -12.272 85.6827
lradius 41.8034
lwrist 25.4282
lhand -17.8203 5.10591
lfingers 7.12502
lthumb 8.44377 34.9171
rfemur -47.8998 10.9157 22.2574
rtibia 44.3724
rfoot -16.4765 -9.06921
rtoes 9.50137
lfemur -40.9164 5.0695 -19.7597
ltibia 40.3624
lfoot -17.4824 5.58912
ltoes -6.40337
891
root 5.18464 16.2863 -24.185 197.306 -46.7682 -176.007
lowerback 28.8097 -1.9564 2.71599
upperback 5.3275 -2.39749 0.76287
thorax -9.97617 -1.5038 0.2198
lowerneck -4.07496 -0.0564781 3.24457
upperneck 7.17037 -0.424148 0.636028
head 2.99729 -0.129554 -0.375176
rclavicle -3.49861e-014 -7.03698e-014
rhumerus -32.0825 7.85152 -85.3397
rradius 37.6431
rwrist 5.27526
rhand -11.6211 -6.72548
rfingers 7.12502
rthumb 14.4221 -36.2044
lclavicle -3.49861e-014 -7.03698e-014
lhumerus -36.7779 -12.268 85.599
lradius 41.9354
lwrist 25.4506
lhand -17.8891 5.11397
lfingers 7.12502
lthumb 8.37732 34.9278
rfemur -47.9502 10.9284 22.2485
rtibia 44.3679
rfoot -16.4963 -9.08966
rtoes 9.50155
lfemur -40.9493 5.07309 -19.7674
ltibia 40.3218
lfoot -17.4464 5.57037
ltoes -6.16372
892
root 5.18202 16.2874 -24.1925 197.408 -46.768 -176.026
lowerback 28.7947 -1.95759 2.69361
upperback 5.35376 -2.40938 0.764736
thorax -9.938 -1.50953 0.237805
lowerneck -4.03279 -0.0537157 3.27918
upperneck 7.14235 -0.419238 0.616826
head 2.97988 -0.127379 -0.386958
rclavicle -4.96962e-014 -9.93923e-015
rhumerus -32.1133 7.9484 -85.3676
rradius 37.7635
rwrist 5.2309
rhand -11.6143 -6.84629
rfingers 7.12502
rthumb 14.4286 -36.3247
lclavicle -4.96962e-014 -9.93923e-015
lhumerus -36.762 -12.2501 85.5224
lradius 42.0657
lwrist 25.4901
lhand -17.9895 5.12982
lfingers 7.12502
lthumb 8.28051 34.9475
rfemur -48.0216 10.9439 22.2328
rtibia 44.3686
rfoot -16.5141 -9.10248
rtoes 9.50519
lfemur -40.9983 5.07924 -19.779
ltibia 40.2849
lfoot -17.4189 5.5399
ltoes -5.90644
893
root 5.17956 16.2881 -24.1991 197.515 -46.7555 -176.04
lowerback 28.7769 -1.95744 2.67496
upperback 5.3825 -2.41906 0.7656
thorax -9.89573 -1.5145 0.251543
lowerneck -3.99737 -0.0464825 3.30861
upperneck 7.12758 -0.408113 0.591219
head 2.96836 -0.122322 -0.399745
rclavicle 8.07066e-014 5.64548e-014
rhumerus -32.1299 8.06252 -85.4017
rradius 37.8688
rwrist 5.16409
rhand -11.5777 -6.8911
rfingers 7.12502
rthumb 14.464 -36.367
lclavicle 8.07066e-014 5.64548e-014
lhumerus -36.7457 -12.2298 85.4545
lradius 42.1856
lwrist 25.5518
lhand -18.0873 5.15333
lfingers 7.12502
lthumb 8.18612 34.9748
rfemur -48.1083 10.9576 22.2177
rtibia 44.3723
rfoot -16.5281 -9.10012
rtoes 9.52126
lfemur -41.0615 5.08929 -19.7897
ltibia 40.2548
lfoot -17.3966 5.49883
ltoes -5.64499
